<?xml version="1.0" encoding="UTF-8"?>
<svg id="Layer_1" data-name="Layer 1" xmlns="http://www.w3.org/2000/svg" viewBox="0 0 420.27 397.9">
  <defs>
    <style>
      .cls-1 {
        fill: #005d8f;
      }

      .cls-1, .cls-2 {
        fill-rule: evenodd;
        stroke-width: 0px;
      }

      .cls-2 {
        fill: #00b1e8;
      }
    </style>
  </defs>
  <path class="cls-2" d="M210.14,198.95l-55.35,22.96c-23.44,9.72-51-1.67-60.72-25.11-9.73-23.44,1.67-51,25.11-60.72l91.31-37.89.34-98.19-126.36,52.43C14.86,81.31-18.48,161.9,10.41,231.51c28.88,69.61,109.48,102.94,179.09,74.06l20.3-8.42.34-98.19h0Z"/>
  <path class="cls-1" d="M210.14,198.95l55.35-22.96c23.44-9.72,51,1.67,60.72,25.11,9.73,23.44-1.67,51-25.11,60.72l-91.31,37.88-.34,98.19,126.36-52.42c69.61-28.88,102.94-109.47,74.06-179.09-28.88-69.61-109.48-102.94-179.09-74.06l-20.3,8.42-.34,98.19h0Z"/>
</svg>